<?xml version="1.0" encoding="UTF-8" standalone="no"?>
<!-- Created with Inkscape (http://www.inkscape.org/) -->

<svg
   version="1.1"
   id="svg2"
   width="486.66666"
   height="198.26666"
   viewBox="0 0 486.66666 198.26666"
   sodipodi:docname="kiva-seeklogo.eps"
   xmlns:inkscape="http://www.inkscape.org/namespaces/inkscape"
   xmlns:sodipodi="http://sodipodi.sourceforge.net/DTD/sodipodi-0.dtd"
   xmlns="http://www.w3.org/2000/svg"
   xmlns:svg="http://www.w3.org/2000/svg">
  <defs
     id="defs6" />
  <sodipodi:namedview
     id="namedview4"
     pagecolor="#ffffff"
     bordercolor="#000000"
     borderopacity="0.25"
     inkscape:showpageshadow="2"
     inkscape:pageopacity="0.0"
     inkscape:pagecheckerboard="0"
     inkscape:deskcolor="#d1d1d1" />
  <g
     id="g8"
     inkscape:groupmode="layer"
     inkscape:label="ink_ext_XXXXXX"
     transform="matrix(1.3333333,0,0,-1.3333333,0,198.26667)">
    <g
       id="g10"
       transform="scale(0.1)">
      <path
         d="m 1440.56,1309.58 c 0,95.05 -69.69,177.43 -181.66,177.43 -111.96,0 -181.66,-82.38 -181.66,-177.43 0,-95.04 69.7,-177.44 181.66,-177.44 111.97,0 181.66,82.38 181.66,177.44 M 340.07,517.48 c 0,-73.929 84.496,-490.0308 610.461,-490.0308 h 42.231 c 0,73.9098 -84.496,490.0308 -610.442,490.0308 z m 42.25,38.012 c 487.93,0 601.993,407.668 601.993,477.368 H 942.066 C 454.133,1032.86 340.07,625.191 340.07,555.492 Z m 2965.62,-50.679 c 0,-185.891 -114.06,-272.512 -228.12,-272.512 -124.65,0 -204.89,126.75 -204.89,297.844 0,168.996 84.48,297.82 215.44,297.82 107.71,0 217.56,-88.711 217.56,-272.473 z M 3650,1032.88 H 3356.39 V 895.582 C 3305.71,1001.2 3187.4,1060.32 3050.1,1060.32 2800.88,1060.32 2604.42,857.551 2604.42,530.164 2604.42,200.621 2794.53,0 3035.34,0 3204.3,0 3305.71,82.3594 3356.39,173.191 V 27.4492 H 3650 Z M 1884.13,27.4297 h 350.64 L 2585.42,1032.88 h -302.07 c 0,0 -164.74,-547.099 -213.33,-720.29 h -4.21 c -48.6,173.191 -215.46,720.29 -215.46,720.29 h -321.07 z m -777.3,0 H 1411 V 1032.88 H 1106.83 Z M 304.172,1461.66 H 0 V 27.4297 H 304.172 V 1461.66"
         style="fill:#59aa34;fill-opacity:1;fill-rule:nonzero;stroke:none"
         id="path12" />
    </g>
  </g>
</svg>
